<svg width="44" height="46" viewBox="0 0 44 46" fill="none" xmlns="http://www.w3.org/2000/svg">
<path fill-rule="evenodd" clip-rule="evenodd" d="M14.7515 15.08L13.0652 16.7754L16.1325 19.7573C18.892 22.4403 19.1776 22.7808 18.979 23.1518C18.8578 23.3785 17.4726 24.7903 15.9009 26.2891L13.0434 29.014L14.7998 30.7672L16.5563 32.5205L19.1441 29.7966C20.5673 28.2984 21.9766 26.9122 22.2757 26.7163L22.8197 26.3598L25.7977 29.4359L28.7756 32.5119L30.5185 30.7688L32.2615 29.026L29.1884 26.045L26.1153 23.0643L26.4719 22.5201C26.6681 22.2207 28.0543 20.8115 29.5525 19.3882L32.2763 16.8004L30.5193 15.0426L28.762 13.2847L25.7734 16.3634L22.7849 19.4421L22.1906 19.0188C21.8636 18.7861 20.493 17.4232 19.1447 15.9903C17.7966 14.5573 16.636 13.3849 16.5657 13.3849C16.4956 13.3849 15.6791 14.1477 14.7515 15.08Z" fill="#2356F6"/>
</svg>
