<svg width="1426" height="1356" viewBox="0 0 1426 1356" fill="none" xmlns="http://www.w3.org/2000/svg">
<path fill-rule="evenodd" clip-rule="evenodd" d="M683.3 2.94501C683.3 4.76912 685.337 6.26358 687.827 6.26358C699.121 6.26358 698.868 14.2288 686.257 56.2619C679.302 79.4416 672.466 99.4378 671.063 100.697C669.664 101.953 665.561 103.661 661.947 104.493C658.334 105.325 664.247 106.003 675.088 106.003C685.928 106.003 692.21 105.356 689.049 104.568C685.836 103.764 683.3 100.172 683.3 96.4237C683.3 88.5245 699.703 30.9346 702.978 27.3398C704.213 25.9803 712.971 43.9923 722.436 67.3698C731.897 90.7442 740.737 109.871 742.081 109.871C743.421 109.871 750.803 88.3267 758.486 61.9916C769.85 23.0354 774.094 12.8002 781.259 7.06417L790.066 0.0157604L772.819 4.70298e-05C763.335 -0.0093718 755.573 1.39718 755.573 3.12397C755.573 4.85075 757.79 6.26358 760.5 6.26358C763.21 6.26358 765.424 8.03118 765.421 10.1881C765.401 18.417 746.949 75.7055 744.321 75.6835C742.803 75.6709 734.699 58.987 726.309 38.6078L711.053 1.55416L697.177 0.590305C688.977 0.0188958 683.3 0.982756 683.3 2.94501ZM704.722 192.904L698.744 244.538L680.344 246.381C559.659 258.468 461.284 303.371 385.431 380.998C316.007 452.044 274.266 542.207 264.427 642.367L262.236 664.68L206.675 670.319C176.117 673.421 151.115 676.803 151.115 677.835C151.115 678.865 252.006 679.314 375.322 678.834C498.635 678.35 623.922 678.35 653.734 678.834L707.939 679.71L668.517 718.566C646.836 739.937 603.226 780.84 571.607 809.457C539.988 838.075 511.969 864.388 509.348 867.929C503.809 875.399 504.489 874.997 529.239 856.09C537.557 849.738 546.056 844.539 548.128 844.539C550.201 844.539 551.896 843.158 551.896 841.472C551.896 839.786 555.559 836.109 560.04 833.306C567.836 828.424 568.71 828.603 580.572 837.456C604.747 855.506 649.97 875.935 665.748 875.935C672.308 875.935 671.093 871.06 664.411 870.576C652.956 869.747 621.143 856.627 602.336 844.979C569.905 824.889 569.442 827.083 612.943 794.767C634.004 779.122 652.2 765.908 653.383 765.402C654.566 764.894 667.101 747.167 681.241 726.01C695.383 704.852 708.323 686.733 709.998 685.741C711.864 684.639 712.692 786.849 712.134 949.478C711.634 1095.52 712.052 1215.01 713.067 1215.01C714.078 1215.01 718.31 1186.4 722.465 1151.44C733.575 1057.96 729.499 1068.62 755.113 1066.13C779.261 1063.78 822.526 1055.04 820.345 1052.96C819.583 1052.23 809.497 1053.71 797.94 1056.26C786.383 1058.81 766.729 1061.88 754.268 1063.08L731.611 1065.27L733.523 1057.73C734.574 1053.58 736.463 1039.59 737.718 1026.64C740.54 997.485 743.276 992.101 755.267 992.101C770.618 992.101 824.714 977.822 848.633 967.458C937.514 928.941 1006.28 850.561 1030.18 760.526C1034.53 744.128 1038.11 727.005 1038.14 722.478C1038.23 707.345 1041.36 706.092 1094.32 699.948C1165.04 691.747 1158.94 690.739 1157.28 710.321C1156.52 719.385 1153.7 738.618 1151.02 753.06C1148.34 767.503 1146.8 779.939 1147.59 780.698C1149.24 782.271 1158.14 735.592 1161.21 709.326L1163.25 691.851L1218.93 686.064C1249.56 682.881 1274.62 679.443 1274.62 678.423C1274.62 677.405 1149.59 676.963 996.778 677.44C826.613 677.974 719.666 677.182 720.819 675.399C721.858 673.798 740.816 661.431 762.954 647.915C785.092 634.402 803.66 622.362 804.215 621.162C804.77 619.963 819.553 601.348 837.066 579.795C854.579 558.241 872.177 536.584 876.172 531.668L883.435 522.729L893.205 533.718C915.031 558.27 938.572 604.004 942.015 628.55C942.935 635.102 945.09 640.465 946.801 640.465C953.023 640.465 940.642 598.799 926.237 571.258C921.23 561.689 910.511 545.485 902.416 535.25L887.699 516.645L902.627 498.105C914.41 483.468 915.764 480.687 909.062 484.884C904.394 487.807 898.188 493.678 895.275 497.93C892.344 502.203 888.34 504.699 886.326 503.506C884.227 502.268 883.593 502.771 884.835 504.689C886.024 506.529 847.933 545.846 799.951 592.3L712.909 676.57L713.707 408.918C714.147 261.708 713.651 141.267 712.603 141.267C711.559 141.267 708.011 164.503 704.722 192.904ZM647.509 220.928C642.036 227.232 646.704 235.964 654.94 234.837C663.008 233.731 666.287 223.32 659.805 219.396C653.718 215.707 651.839 215.942 647.509 220.928ZM769.534 218.696C763.782 220.916 764.4 232.137 770.398 234.334C778.358 237.254 785.638 229.653 781.669 222.567C778.25 216.464 776.65 215.952 769.534 218.696ZM583.926 229.427C576.837 233.374 576.423 245.853 583.203 251.232C587.044 254.277 590.138 254.384 596.344 251.681C606.37 247.317 607.415 234.049 598.105 229.286C590.542 225.418 591.14 225.411 583.926 229.427ZM828.084 232.086C819.921 239.888 819.635 242.858 826.435 249.36C833.035 255.665 839.132 255.614 845.844 249.203C852.575 242.767 851.212 235.91 842.046 230.105C835.614 226.03 834.214 226.228 828.084 232.086ZM726.007 249.495C726.007 253.203 730.014 254.293 743.644 254.293C790.243 254.293 865.627 274.606 920.149 301.855C1001.75 342.641 1070.71 410.429 1112.9 491.333C1136.01 535.658 1154.8 602.121 1157.06 647.529C1157.55 657.459 1159.17 665.582 1160.64 665.582C1164.37 665.582 1160.25 626.019 1152.74 589.641C1126.32 461.739 1037.26 350.054 914.634 291.067C867.969 268.619 804.366 251.652 748.181 246.667C729.584 245.015 726.007 245.474 726.007 249.495ZM522.311 252.745C518.674 256.933 518.819 258.559 523.178 262.729C530.225 269.46 539.512 265.721 538.165 256.695C536.88 248.095 528.221 245.938 522.311 252.745ZM890.262 259.002C890.262 265.281 891.904 266.851 898.474 266.851C905.044 266.851 906.687 265.281 906.687 259.002C906.687 252.723 905.044 251.153 898.474 251.153C891.904 251.153 890.262 252.723 890.262 259.002ZM695.271 268.682C692.502 287.987 691.667 288.828 675.255 288.828C667.433 288.828 648.672 291.01 633.564 293.679C553.362 307.845 477.315 345.348 420.775 398.624C385.67 431.696 364.239 460.169 341.538 503.892C319.062 547.181 306.838 585.107 301.378 628.5C297.259 661.217 296.441 662.294 275.61 662.398C267.302 662.442 267.098 661.971 268.448 645.959C282.798 475.764 402.861 328.975 571.949 274.901C611.107 262.377 649.661 254.987 677.998 254.575L697.334 254.293L695.271 268.682ZM463.856 273.758C458.173 279.19 459.01 291.174 465.308 294.543C473.461 298.903 482.742 295.268 484.956 286.844C488.415 273.667 473.576 264.468 463.856 273.758ZM944.699 274.923C937.813 281.507 939.101 288.329 948.332 294.178C954.781 298.263 956.174 298.046 962.534 291.968C968.894 285.89 969.12 284.559 964.846 278.396C958.726 269.573 951.588 268.342 944.699 274.923ZM373.414 287.774C369.574 291.444 371.026 294.326 377.527 295.952C383.243 297.381 392.99 319.298 389.425 322.705C388.699 323.402 381.347 319.528 373.089 314.096C356.604 303.258 354.626 305.289 363.003 324.45C370.375 341.31 369.258 342.469 353.67 334.142L339.41 326.526L335.908 333.872C332.764 340.462 333.135 341.087 339.505 339.922C343.881 339.122 352.067 342.409 360.858 348.494C368.696 353.922 375.881 357.63 376.817 356.732C377.757 355.834 376.147 348.428 373.236 340.271C370.329 332.114 368.572 324.846 369.327 324.124C370.086 323.399 376.278 326.425 383.092 330.852C389.905 335.276 396.16 338.246 396.988 337.455C397.819 336.66 395.92 326.912 392.77 315.788C387.313 296.524 378.144 283.252 373.414 287.774ZM761.187 293.462C777.823 295.924 797.559 299.513 805.046 301.437C812.53 303.365 819.346 304.275 820.194 303.465C822.789 300.988 778.325 292.376 753.93 290.634C732.524 289.105 733.024 289.299 761.187 293.462ZM691.365 303.742C690.34 310.219 687.735 330.35 685.58 348.481L681.658 381.447L655.377 386.379C618.742 393.255 597.27 400.391 565.881 416.133C478.951 459.72 420.085 536.945 403.857 628.691C401.13 644.107 398.732 649.883 395.059 649.883C389.928 649.883 389.987 645.177 395.575 609.069C396.636 602.221 395.578 603.998 392.776 613.778C390.299 622.412 388.131 634.066 387.957 639.68C387.783 645.293 387.215 649.883 386.695 649.883C386.176 649.883 368.154 651.968 346.65 654.518C325.146 657.07 306.828 658.464 305.944 657.623C305.064 656.778 306.092 643.52 308.234 628.154C331.509 461.074 465.012 327.226 638.952 296.586C651.599 294.357 668.987 292.408 677.591 292.251L693.234 291.968L691.365 303.742ZM420.693 307.547C414.277 311.336 418.065 321.678 426.274 322.799C432.187 323.603 433.633 322.281 433.633 316.071C433.633 307.735 427.362 303.607 420.693 307.547ZM829.487 307.666C838.518 311.374 843.705 311.374 837.7 307.666C834.99 305.993 830.555 304.699 827.845 304.796C824.596 304.909 825.154 305.886 829.487 307.666ZM993.19 312.62C992.096 315.342 993.621 319.885 996.577 322.711C1001.56 327.468 1002.35 327.468 1007.33 322.711C1014.05 316.291 1010.97 307.666 1001.95 307.666C998.226 307.666 994.284 309.895 993.19 312.62ZM1046.6 311.974C1047.72 314.768 1041.78 319.813 1029.66 326.347C1017.14 333.106 1012.09 337.448 1014.32 339.574C1016.54 341.696 1020.97 341.084 1027.8 337.706C1040.82 331.273 1067.66 327.537 1067.66 332.161C1067.66 334.014 1060.21 339.404 1051.1 344.142C1032.4 353.869 1030.34 362.163 1046.33 363.322C1053.87 363.868 1054.7 363.454 1049.9 361.539C1044.52 359.397 1046.07 357.611 1060.79 348.952C1081.74 336.635 1082.39 328.871 1062.7 326.485C1050.82 325.044 1050.21 324.545 1056.16 321.17L1062.73 317.449L1056.16 312.658C1047.92 306.649 1044.36 306.395 1046.6 311.974ZM776.104 329.097C773.848 338.296 772.12 348.892 772.267 352.644C772.481 358.142 773.473 357.413 777.363 348.889C780.02 343.071 781.748 332.475 781.203 325.342L780.211 312.375L776.104 329.097ZM857.411 317.085C860.121 318.758 863.816 320.127 865.623 320.127C867.43 320.127 866.691 318.758 863.981 317.085C861.271 315.411 857.575 314.043 855.768 314.043C853.961 314.043 854.7 315.411 857.411 317.085ZM647.657 328.074C647.549 334.981 649.49 344.87 651.974 350.051L656.487 359.47L656.501 350.051C656.507 344.87 654.566 334.981 652.184 328.074L647.854 315.515L647.657 328.074ZM877.394 324.535C880.774 327.427 900.117 335.919 900.117 334.513C900.117 332.704 881.904 323.364 878.379 323.364C877.085 323.364 876.642 323.892 877.394 324.535ZM581.722 330.73C581.577 332.19 583.778 340.996 586.607 350.296C591.824 367.451 597.924 375.51 597.845 365.149C597.802 359.303 582.185 325.97 581.722 330.73ZM838.17 345.687C830.696 362.87 829.142 372.003 834.198 369.017C837.647 366.98 848.705 332.836 846.576 330.802C845.824 330.083 842.043 336.783 838.17 345.687ZM909.972 340.412C909.972 341.276 912.929 343.492 916.542 345.341C920.156 347.191 923.112 347.994 923.112 347.131C923.112 346.268 920.156 344.051 916.542 342.202C912.929 340.353 909.972 339.549 909.972 340.412ZM318.549 361.824C318.454 374.194 318.096 374.728 313.658 369.118C308.408 362.49 308.129 362.581 302.597 372.741C299.512 378.414 299.644 379.425 303.287 378.087C306.096 377.058 312.515 383.004 320.379 393.917C334.6 413.653 342.711 413.154 331.834 393.214C323.855 378.584 319.108 356.412 324.351 358.264C326.227 358.926 332.741 365.739 338.825 373.403C344.909 381.067 351.361 387.425 353.161 387.531C354.961 387.638 356.762 382.781 357.166 376.737C357.698 368.722 357.185 367.388 355.27 371.815C352.957 377.155 351.377 376.122 342.061 363.181C327.974 343.615 318.697 343.078 318.549 361.824ZM1070.16 359.674C1052.06 369.064 1056.37 389.566 1077.37 393.974C1084.83 395.544 1086.13 397.205 1084.86 403.572C1083.55 410.093 1084.58 411.273 1091.56 411.273C1099.99 411.273 1104.9 405.302 1101.02 399.779C1099.84 398.087 1092.99 394.505 1085.82 391.814C1070.32 386.009 1064.27 378.715 1070.23 373.026C1073.46 369.94 1076.24 370.245 1083.8 374.508C1105.95 387.013 1126.89 376.75 1109.09 362.113C1098.78 353.639 1083.63 352.691 1070.16 359.674ZM522.449 361.95C522.235 366.411 534.87 388.049 540.116 392.209C544.656 395.811 544.866 395.252 541.959 387.293C538.621 378.15 522.666 357.423 522.449 361.95ZM893.951 375.57C883.159 391.142 881.602 395.575 886.921 395.575C890.495 395.575 907.994 364.383 905.669 362.16C904.867 361.394 899.594 367.429 893.951 375.57ZM1106.65 365.253C1111.37 370.687 1108.15 373.61 1097.5 373.551C1086.76 373.488 1079.28 369.071 1082.21 364.531C1085.36 359.661 1102.23 360.16 1106.65 365.253ZM962.534 374.785C962.534 375.435 965.122 377.909 968.283 380.279C973.493 384.182 973.608 384.072 969.524 379.092C965.231 373.862 962.534 372.201 962.534 374.785ZM742.918 384.527C743.789 385.359 755.49 388.134 768.926 390.699C782.359 393.261 797.047 396.153 801.564 397.123L809.777 398.891L801.564 395.465C787.806 389.723 738.789 380.584 742.918 384.527ZM680.015 392.209C680.015 399.534 673.228 447.036 672.016 448.211C671.543 448.669 662.43 451.187 651.767 453.805C623.916 460.644 589.688 476.929 564.892 495.138L543.395 510.924L533.684 503.323C487.213 466.948 501.368 483.227 571.607 546.929C633.915 603.446 704.371 671.167 696.441 666.922C693.731 665.472 676.441 654.982 658.018 643.614L624.523 622.946L579.176 628.44C554.235 631.463 529.104 633.991 523.329 634.06L512.83 634.185L518.819 617.552C526.926 595.028 536.141 578.285 549.952 560.995C556.315 553.03 560.172 545.714 558.522 544.741C555.017 542.669 532.557 570.511 523.093 588.661C519.492 595.568 513.924 609.213 510.721 618.987C505.281 635.57 504.141 636.835 493.553 638.016C482.236 639.278 482.213 639.256 483.8 627.96C487.173 603.916 512.804 554.505 532.698 533.686C537.757 528.393 540.169 523.564 538.306 522.462C536.506 521.401 532.879 523.144 530.248 526.34C505.412 556.474 489.233 586.875 480.942 618.983L475.551 639.865L461.983 641.648C454.52 642.631 439.175 644.361 427.881 645.494L407.346 647.557L409.294 636.945C421.09 572.646 446.576 523.012 490.879 478.059C539.485 428.742 608.919 394.671 677.551 386.451C678.908 386.288 680.015 388.878 680.015 392.209ZM472.459 405.176C483.376 420.959 491.881 428.861 494.874 426.004C495.945 424.978 489.115 416.651 479.693 407.502L462.561 390.866L472.459 405.176ZM948.201 407.999C932.567 423.97 927.915 433.178 938.743 426.717C943.986 423.587 967.527 392.436 964.653 392.436C963.982 392.436 956.578 399.44 948.201 407.999ZM824.218 405.283C832.158 408.648 839.244 410.846 839.957 410.162C841.379 408.805 816.064 398.577 812.175 398.938C810.854 399.057 816.275 401.914 824.218 405.283ZM857.411 418.902C857.411 419.766 860.367 421.982 863.981 423.832C867.594 425.681 870.551 426.485 870.551 425.621C870.551 424.758 867.594 422.541 863.981 420.692C860.367 418.843 857.411 418.039 857.411 418.902ZM873.836 428.07C873.836 428.795 877.712 431.816 882.453 434.786C887.193 437.753 890.068 438.629 888.839 436.732C886.497 433.109 873.836 425.797 873.836 428.07ZM289.089 442.669C285.475 446.123 282.518 450.261 282.518 451.865C282.518 456.251 292.229 464.647 297.301 464.647C302.929 464.647 312.084 456.06 312.084 450.782C312.084 446.713 301.884 436.39 297.863 436.39C296.651 436.39 292.702 439.216 289.089 442.669ZM429.283 451.784C438.633 460.584 448.104 467.786 450.324 467.786C456.333 467.786 444.237 456.013 427.063 445.14L412.28 435.781L429.283 451.784ZM1120.14 442.741C1114.78 447.862 1114.19 450.327 1117.07 455.476C1121.8 463.915 1128.04 465.909 1136.39 461.639C1144.49 457.495 1145.25 448.204 1138.05 441.322C1131.28 434.848 1128.14 435.096 1120.14 442.741ZM993.989 451.319C977.507 463.296 968.828 474.709 981.042 468.339C987.208 465.124 1014.43 439.517 1011.66 439.545C1010.84 439.555 1002.89 444.851 993.989 451.319ZM752.287 453.598C752.287 456.509 755.29 458.367 759.984 458.367C784.077 458.367 852.105 491.026 869.414 510.902C872.013 513.888 873.898 514.183 875.413 511.841C880.955 503.27 824.553 468.697 786.781 457.51C757.915 448.961 752.287 448.324 752.287 453.598ZM914.9 458.367C918.168 461.821 921.585 464.647 922.488 464.647C923.392 464.647 921.454 461.821 918.185 458.367C914.916 454.914 911.5 452.088 910.596 452.088C909.693 452.088 911.631 454.914 914.9 458.367ZM670.774 470.405C669.618 481.996 668.954 482.593 652.765 486.558C632.904 491.421 599.33 507.634 582.09 520.685L569.82 529.972L560.858 523.734C555.927 520.302 551.896 516.372 551.896 514.996C551.896 511.006 585.069 488.165 604.629 478.69C627.569 467.573 653.091 458.888 663.675 458.596C671.349 458.386 671.885 459.275 670.774 470.405ZM467.814 471.711L461.556 478.775L468.948 472.794C473.015 469.503 476.339 466.326 476.339 465.73C476.339 463.218 473.695 465.074 467.814 471.711ZM954.321 470.926C957.59 474.379 961.006 477.205 961.909 477.205C962.813 477.205 960.875 474.379 957.606 470.926C954.337 467.472 950.921 464.647 950.017 464.647C949.114 464.647 951.052 467.472 954.321 470.926ZM937.895 480.345C941.164 483.798 944.581 486.624 945.484 486.624C946.387 486.624 944.449 483.798 941.181 480.345C937.912 476.891 934.495 474.065 933.592 474.065C932.689 474.065 934.627 476.891 937.895 480.345ZM452.923 488.978C448.84 493.958 448.955 494.068 454.165 490.165C459.638 486.062 461.376 483.484 458.672 483.484C457.992 483.484 455.403 485.955 452.923 488.978ZM755.573 486.47C755.573 488.486 756.877 489.365 758.473 488.423C761.633 486.555 790.539 495.396 808.42 503.7C817.638 507.979 818.499 508.042 813.259 504.046C806.896 499.195 779.708 488.592 763.92 484.806C758.552 483.519 755.573 484.112 755.573 486.47ZM965.819 484.671C965.819 485.321 968.407 487.795 971.568 490.165C976.778 494.068 976.893 493.958 972.809 488.978C968.516 483.748 965.819 482.087 965.819 484.671ZM661.839 542.038C657.568 577.72 654.953 590.146 651.947 589.041C644.717 586.391 578.177 536.139 578.177 533.329C578.177 529.844 602.27 513.05 619.202 504.73C639.323 494.843 665.071 487.095 666.438 490.517C667.102 492.178 665.032 515.364 661.839 542.038ZM266.093 500.532C266.093 507.103 267.66 508.601 274.536 508.601C281.408 508.601 282.781 507.289 281.927 501.537C281.25 496.997 278.235 494.115 273.484 493.468C267.466 492.652 266.093 493.964 266.093 500.532ZM381.071 494.178C381.071 496.109 411.37 514.88 414.484 514.88C422.175 514.88 415.335 507.8 400.89 500.805C384.662 492.947 381.071 491.745 381.071 494.178ZM1147 495.682C1140.52 499.606 1143.8 510.017 1151.86 511.122C1160.1 512.249 1164.77 503.518 1159.29 497.214C1154.96 492.228 1153.09 491.992 1147 495.682ZM983.765 507.816C988.828 515.153 993.598 521.159 994.363 521.159C996.735 521.159 984.156 502.052 979.222 498.156C976.656 496.131 978.7 500.479 983.765 507.816ZM1028 502.247C1021.55 505.509 1014.36 510.372 1012.03 513.056C1008.28 517.373 1008.88 517.574 1017.19 514.802C1027.28 511.436 1048.47 496.25 1043.02 496.294C1041.21 496.309 1034.45 498.988 1028 502.247ZM821.274 509.7C821.274 510.425 825.151 513.446 829.891 516.416C834.632 519.383 837.506 520.258 836.277 518.362C833.935 514.739 821.274 507.427 821.274 509.7ZM418.692 540.289C415.801 545.63 414.021 550.556 414.734 551.237C415.447 551.918 418.489 547.551 421.494 541.526C428.249 527.988 425.91 526.952 418.692 540.289ZM1004.24 541.526C1007.24 547.551 1010.29 551.918 1011 551.237C1012.5 549.802 1002.53 530.578 1000.28 530.578C999.455 530.578 1001.24 535.504 1004.24 541.526ZM247.296 550.201C240.062 559.142 239.894 562.053 246.264 568.141C249.943 571.657 254.326 574.533 256.004 574.533C260.594 574.533 269.378 565.252 269.378 560.405C269.378 554.979 260.377 546.276 254.763 546.276C252.404 546.276 249.043 548.044 247.296 550.201ZM363.003 557.334C379.974 564.973 392.74 567.315 389.419 562.182C387.576 559.334 354.952 549.152 349.357 549.677C347.829 549.821 353.969 553.265 363.003 557.334ZM1159.56 554.22C1156.37 557.89 1156.26 560.847 1159.09 566.778C1163.71 576.479 1177.54 577.349 1182.64 568.254C1190.38 554.414 1170.1 542.079 1159.56 554.22ZM1053.86 557.535C1045.36 560.031 1037.52 563.466 1036.42 565.164C1032.88 570.627 1045.84 568.389 1062.73 560.612C1081.18 552.119 1077.09 550.7 1053.86 557.535ZM404.389 572.866C400.598 582.545 397.572 592.181 397.668 594.275C397.763 596.366 401.386 588.947 405.723 577.782C410.059 566.621 413.081 556.986 412.444 556.373C411.803 555.761 408.177 563.183 404.389 572.866ZM1012.14 555.695C1012.02 556.559 1015.64 566.448 1020.19 577.672C1024.74 588.897 1027.56 593.841 1026.46 588.661C1024.57 579.804 1012.62 552.295 1012.14 555.695ZM0 613.593C0 627.715 4.33305 634.867 7.74298 626.371C8.92562 623.429 11.7541 622.5 15.4794 623.828C23.7775 626.785 75.8759 660.043 74.4108 661.444C72.7846 663.001 13.009 656.455 9.40851 654.329C7.84809 653.406 6.5702 649.912 6.5702 646.559C6.5702 643.206 5.0919 640.465 3.2851 640.465C1.40931 640.465 0 649.883 0 662.442C0 675 1.40931 684.419 3.2851 684.419C5.0919 684.419 6.5702 682.256 6.5702 679.612C6.5702 669.735 16.9774 671.541 40.2326 685.452C80.7116 709.671 81.0368 710.195 54.2041 707.966C17.0201 704.874 9.15885 702.955 7.4046 696.551C6.5242 693.333 4.49731 690.698 2.90075 690.698C-1.12349 690.698 -0.765428 727.551 3.2851 729.944C5.0919 731.011 6.5702 729.636 6.5702 726.892C6.5702 724.145 8.57411 721.162 11.0248 720.264C13.4755 719.366 37.368 720.826 64.1218 723.514C107.114 727.827 119.472 727.978 114.706 724.129C113.95 723.52 95.9676 712.264 74.736 699.116C53.5044 685.964 36.1361 674.743 36.1361 674.178C36.1361 673.613 53.442 674.922 74.5914 677.091C111.22 680.843 120.744 680.476 112.912 675.616C39.9205 630.314 9.55964 609.979 8.0255 605.37C4.53344 594.849 0 599.496 0 613.593ZM1028.89 602.789C1028.81 605.38 1030.71 617.389 1033.11 629.476C1035.89 643.535 1037.46 647.494 1037.46 640.465C1037.46 629.821 1029.15 593.305 1028.89 602.789ZM235.377 613.046C228.17 618.082 231.402 627.906 240.265 627.906C248.505 627.906 251.868 619.244 245.86 613.505C241.987 609.803 240.134 609.722 235.377 613.046ZM346.578 616.739C362.76 622.164 380.674 623.131 375.625 618.305C373.716 616.481 363.44 614.39 352.793 613.659L333.437 612.334L346.578 616.739ZM1179.85 614.987C1173.37 618.911 1176.65 629.322 1184.71 630.427C1192.95 631.554 1197.62 622.823 1192.15 616.519C1187.82 611.533 1185.94 611.298 1179.85 614.987ZM1310.75 653.102V693.995L1319.11 697.031C1323.71 698.701 1331.38 701.006 1336.16 702.152C1344.63 704.183 1344.55 703.954 1333.21 693.116C1322.13 682.523 1317.32 670.724 1317.32 654.103C1317.32 643.507 1323.61 642.32 1346.78 648.537L1366.94 653.943L1365.95 665.133C1365.16 674.043 1363.29 676.74 1356.75 678.369C1348.03 680.542 1348.43 680.818 1369.55 687.282C1386.88 692.582 1392.74 691.662 1383.76 685.06C1374.99 678.608 1368.89 653.956 1376.76 656.759C1379.3 657.667 1389.14 660.288 1398.63 662.589L1415.88 666.768V681.615C1415.88 701.317 1413.45 706.396 1404.03 706.396C1399.7 706.396 1396.17 707.809 1396.17 709.536C1396.17 711.263 1398.2 712.676 1400.68 712.676C1403.17 712.676 1409.82 713.558 1415.47 714.638L1425.73 716.6V678.532C1425.73 655.246 1424.46 640.465 1422.45 640.465C1420.64 640.465 1419.16 642.584 1419.16 645.174C1419.16 650.609 1408.45 651.356 1394.19 646.917C1388.96 645.287 1369.52 639.576 1351 634.226C1323.23 626.201 1317.32 623.42 1317.32 618.352C1317.32 614.974 1315.85 612.208 1314.04 612.208C1312.02 612.208 1310.75 627.931 1310.75 653.102ZM1056.16 619.944L1046.3 624.258L1056.16 624.271C1061.58 624.277 1071.93 622.421 1079.15 620.145L1092.3 616.007L1079.15 615.819C1071.93 615.715 1061.58 617.571 1056.16 619.944ZM264.45 708.751C267.591 735.557 276.48 782.284 278.139 780.698C278.934 779.939 277.331 767.503 274.578 753.06C271.825 738.618 269.168 718.682 268.672 708.751C268.179 698.821 266.55 690.698 265.055 690.698C263.56 690.698 263.287 698.821 264.45 708.751ZM881.513 848.508C880.311 850.363 880.965 850.859 883.018 849.647C885.032 848.458 889.933 851.757 894.036 857.06C898.103 862.316 905.199 868.959 909.808 871.826C919.062 877.577 918.99 877.458 898.698 853.208C891.651 844.79 887.045 836.339 888.087 833.745C889.269 830.8 888.359 829.736 885.538 830.769C883.12 831.658 878.1 828.282 874.352 823.253C869.037 816.12 868.416 813.294 871.513 810.308C874.618 807.322 874.322 806.911 870.16 808.427C866.224 809.856 857.401 801.247 836.277 775.377C820.565 756.137 806.994 738.609 806.117 736.427C804.928 733.463 817.671 731.071 856.428 726.989C884.972 723.981 916.092 720.449 925.576 719.143C941.893 716.895 942.823 717.137 942.823 723.649C942.823 732.807 932.623 760.712 921.848 781.031C917.061 790.061 913.983 797.445 915.005 797.445C918.441 797.445 939.315 752.103 943.914 734.653L948.464 717.385L974.39 713.906C988.647 711.991 1008.27 709.564 1018 708.509L1035.69 706.591L1033.66 722.977C1021.42 821.708 945.264 917.881 844.888 961.377C821.271 971.612 767.192 985.822 751.867 985.822C745.77 985.822 742.432 984.195 742.432 981.222C742.432 975.116 750.559 971.392 769.682 968.742C778.348 967.54 790.914 964.504 797.605 961.998C804.3 959.49 806.081 958.225 801.564 959.182C774.422 964.953 747.268 969.511 746.19 968.482C745.113 967.452 751.423 911.272 754.121 897.913C754.643 895.322 755.182 889.577 755.32 885.144C755.54 878.174 758.059 876.334 773.93 871.553C784.025 868.51 791.646 865.411 790.868 864.667C790.086 863.92 783.118 865.443 775.382 868.052C767.645 870.661 760.763 872.796 760.086 872.796C757.527 872.796 759.317 847.757 764.869 805.91L770.618 762.57L748.992 730.559C737.097 712.952 726.22 696.428 724.824 693.838C723.425 691.248 758.585 724.251 802.957 767.176C847.329 810.104 882.68 846.703 881.513 848.508ZM298.944 709.191C298.944 715.906 301.266 733.108 304.108 747.419C333.056 893.269 437.565 1006.37 584.747 1051.13C621.977 1062.45 693.156 1072.75 693.156 1066.82C693.156 1065.44 687.436 1064.31 680.446 1064.31C643.843 1064.31 579.028 1047.65 533.828 1026.63C408.607 968.384 320.327 848.862 306.989 719.523C304.532 695.687 298.944 688.51 298.944 709.191ZM386.745 719.74C403.098 843.626 498.809 950.743 621.577 982.56C658.856 992.223 683.3 995.19 683.3 990.057C683.3 987.486 679.591 985.822 673.866 985.822C658.541 985.822 604.461 971.612 580.845 961.377C510.498 930.894 450.242 874.017 418.305 807.95C406.324 783.169 390.927 731.127 390.927 715.413C390.927 710.453 389.59 706.396 387.954 706.396C386.318 706.396 385.776 712.403 386.745 719.74ZM400.782 710.902C400.782 719.313 410.282 758.125 416.587 775.468C453.284 876.431 543.694 950.036 655.909 970.315C667.042 972.325 678.13 973.285 680.547 972.45C682.965 971.612 679.03 969.923 671.803 968.695C598.68 956.265 540.918 928.003 494.049 881.728C448.107 836.367 420.538 783.276 409.119 718.17C407.152 706.958 400.782 701.404 400.782 710.902ZM478.599 722.879C484.269 747.243 506.04 797.445 510.935 797.445C511.845 797.445 508.671 790.061 503.885 781.031C492.903 760.322 482.909 732.753 482.909 723.171C482.909 719.128 481.569 715.815 479.933 715.815C478.294 715.815 477.693 718.993 478.599 722.879ZM505.905 723.171C505.905 745.299 548.115 817.689 557.711 812.019C560.076 810.622 558.749 807.42 553.874 802.76C538.007 787.596 509.466 729.284 514.276 721.853C515.304 720.258 513.842 718.955 511.027 718.955C508.211 718.955 505.905 720.854 505.905 723.171ZM231.898 730.336C230.68 733.366 231.688 737.654 234.181 740.034C240.463 746.04 250.249 741.708 249.02 733.469C247.759 725.027 234.967 722.685 231.898 730.336ZM1177.16 733.328C1176.06 736.05 1177.28 740.304 1179.87 742.775C1186.21 748.838 1197.19 741.83 1193.96 733.786C1191.24 727.008 1179.82 726.697 1177.16 733.328ZM346.578 736.135L333.437 740.273L346.578 740.461C353.805 740.565 364.153 738.709 369.574 736.336L379.429 732.022L369.574 732.009C364.153 732.003 353.805 733.859 346.578 736.135ZM1056.16 739.475C1061.58 741.849 1072.67 743.726 1080.8 743.648L1095.58 743.51L1079.15 739.143C1070.12 736.741 1059.03 734.86 1054.52 734.97C1046.49 735.158 1046.53 735.262 1056.16 739.475ZM243.097 788.026C235.348 801.866 255.63 814.201 266.175 802.06C269.362 798.39 269.473 795.433 266.645 789.502C262.019 779.801 248.189 778.931 243.097 788.026ZM1161.52 786.679C1154.92 792.987 1154.97 798.814 1161.68 805.228C1168.41 811.661 1175.59 810.358 1181.66 801.599C1185.93 795.451 1185.72 794.114 1179.59 788.255C1171.43 780.454 1168.32 780.18 1161.52 786.679ZM279.697 788.026C279.697 790.616 280.965 795.561 282.518 799.015C284.299 802.974 285.34 803.552 285.34 800.585C285.34 797.995 284.072 793.05 282.518 789.596C280.738 785.637 279.697 785.059 279.697 788.026ZM1141.8 792.959C1140.6 797.561 1140.24 801.932 1141.02 802.673C1141.79 803.41 1143.41 800.252 1144.62 795.652C1145.83 791.05 1146.18 786.679 1145.41 785.938C1144.64 785.201 1143.01 788.359 1141.8 792.959ZM363.003 795.668C353.969 799.828 347.829 803.341 349.357 803.476C354.994 803.979 387.582 793.797 389.419 790.959C392.858 785.637 379.698 787.982 363.003 795.668ZM1036.31 794.098C1038.45 797.395 1074.17 807.963 1076.3 805.928C1078.09 804.224 1045.19 791.166 1039.1 791.166C1036.53 791.166 1035.27 792.484 1036.31 794.098ZM899.696 815.498C895.613 820.477 895.728 820.587 900.938 816.685C904.098 814.314 906.687 811.84 906.687 811.19C906.687 808.606 903.99 810.267 899.696 815.498ZM1130.44 826.05C1128.41 831.598 1127.33 836.687 1128.04 837.359C1128.74 838.031 1130.97 834.04 1132.99 828.493C1135.02 822.945 1136.1 817.856 1135.4 817.184C1134.69 816.512 1132.46 820.502 1130.44 826.05ZM292.476 827.271C292.476 828.998 293.908 832.53 295.659 835.12C297.41 837.711 298.842 838.417 298.842 836.69C298.842 834.963 297.41 831.431 295.659 828.841C293.908 826.251 292.476 825.545 292.476 827.271ZM847.135 831.196C843.051 836.175 843.166 836.285 848.377 832.383C851.537 830.012 854.125 827.538 854.125 826.888C854.125 824.304 851.428 825.965 847.135 831.196ZM407.828 841.619C397.543 845.557 380.299 857.409 382.208 859.229C384.412 861.339 408.696 848.988 413.722 843.199C418.584 837.601 418.433 837.56 407.828 841.619ZM298.944 842.524C298.944 845.936 321.831 888.494 323.664 888.494C324.568 888.494 319.942 878.252 313.382 865.732C301.079 842.244 298.944 838.813 298.944 842.524ZM1008.53 844.486C1008.53 847.902 1041.16 864.627 1043.49 862.404C1045.16 860.806 1015.37 841.4 1011.25 841.4C1009.75 841.4 1008.53 842.787 1008.53 844.486ZM1112.7 865.057C1106.02 877.948 1101.27 888.494 1102.14 888.494C1104.33 888.494 1127.48 844.156 1126.02 842.759C1125.37 842.131 1119.37 852.169 1112.7 865.057ZM264.749 849.641C263.531 852.671 264.539 856.96 267.032 859.339C273.314 865.345 283.1 861.013 281.871 852.774C280.61 844.332 267.818 841.99 264.749 849.641ZM1143.21 855.528C1143.21 861.807 1144.86 863.377 1151.43 863.377C1158 863.377 1159.64 861.807 1159.64 855.528C1159.64 849.249 1158 847.679 1151.43 847.679C1144.86 847.679 1143.21 849.249 1143.21 855.528ZM804.849 857.098C798.525 860.407 794.534 863.173 795.979 863.245C799.458 863.421 817.989 854.212 817.989 852.307C817.989 850.253 817.796 850.322 804.849 857.098ZM429.687 900.986L412.28 917.359L427.253 907.9C443.767 897.467 452.036 889.338 449.047 886.478C447.972 885.455 439.26 891.982 429.687 900.986ZM975.94 894.013C977.924 897.052 987.175 904.217 996.502 909.937L1013.45 920.342L996.449 904.418C979.36 888.412 968.769 883.04 975.94 894.013ZM328.51 897.913C330.445 901.366 332.764 904.192 333.667 904.192C334.571 904.192 333.73 901.366 331.795 897.913C329.86 894.459 327.541 891.633 326.637 891.633C325.734 891.633 326.575 894.459 328.51 897.913ZM914.588 898.698L908.33 905.762L915.721 899.781C922.666 894.161 924.607 891.633 921.979 891.633C921.355 891.633 918.03 894.811 914.588 898.698ZM289.089 904.192C285.475 907.645 282.518 911.783 282.518 913.388C282.518 917.774 292.229 926.169 297.301 926.169C302.929 926.169 312.084 917.582 312.084 912.305C312.084 908.236 301.884 897.913 297.863 897.913C296.651 897.913 292.702 900.738 289.089 904.192ZM1119.73 904.657C1113.84 910.286 1113.65 911.633 1117.91 917.764C1123.82 926.282 1130.04 927.607 1138.01 922.037C1142.48 918.917 1143.6 915.532 1142.09 909.765C1139.3 899.143 1128.16 896.6 1119.73 904.657ZM880.406 923.309C873.33 928.841 873.192 929.265 879.401 926.364C883.366 924.511 887.518 921.592 888.629 919.874C891.595 915.287 889.604 916.119 880.406 923.309ZM486.014 930.351C483.208 932.367 475.971 941.082 469.927 949.716L458.941 965.414L472.827 952.856C486.132 940.822 494.522 929.943 492.203 927.726C491.605 927.152 488.819 928.332 486.014 930.351ZM862.144 934.191C856.021 938.881 856.06 938.938 863.159 935.651C867.226 933.767 870.551 931.569 870.551 930.769C870.551 928.367 868.846 929.061 862.144 934.191ZM932.593 934.803C934.318 937.823 942.002 945.949 949.666 952.856L963.598 965.414L955.96 954.426C945.996 940.096 935.826 929.309 932.281 929.309C930.724 929.309 930.865 931.783 932.593 934.803ZM358.076 939.914C358.076 940.564 360.661 943.038 363.825 945.409C369.035 949.311 369.15 949.201 365.066 944.222C360.773 938.991 358.076 937.33 358.076 939.914ZM324.239 949.217C321.693 955.556 326.857 961.468 333.832 960.196C337.245 959.575 340.477 955.923 341.059 952.039C341.9 946.388 340.517 945.007 334.019 945.007C329.568 945.007 325.166 946.9 324.239 949.217ZM827.845 949.716C823.328 952.184 821.11 954.203 822.917 954.203C824.724 954.203 829.898 952.184 834.415 949.716C838.932 947.248 841.149 945.23 839.342 945.23C837.536 945.23 832.362 947.248 827.845 949.716ZM1084.06 949.738C1080.43 953.926 1080.57 955.553 1084.93 959.722C1091.98 966.454 1101.26 962.714 1099.92 953.688C1098.63 945.088 1089.97 942.931 1084.06 949.738ZM986.86 961.49L980.602 968.554L987.993 962.573C994.938 956.953 996.879 954.426 994.251 954.426C993.627 954.426 990.303 957.603 986.86 961.49ZM394.212 977.973C405.851 989.197 416.113 998.38 417.017 998.38C417.92 998.38 409.136 989.197 397.497 977.973C385.858 966.749 375.595 957.565 374.692 957.565C373.788 957.565 382.573 966.749 394.212 977.973ZM1037.91 969.339L1026.59 981.112L1038.91 970.293C1045.69 964.34 1051.23 959.044 1051.23 958.52C1051.23 956.121 1048.45 958.382 1037.91 969.339ZM527.094 976.714C522.423 985.52 519.259 993.354 520.064 994.12C521.736 995.718 542.041 967.251 542.041 963.308C542.041 955.886 534.597 962.563 527.094 976.714ZM883.668 968.497C887.913 979.166 900.268 996.142 902.347 994.154C904.575 992.029 891.605 968.818 885.469 963.951C880.738 960.199 880.554 960.664 883.668 968.497ZM1060.26 973.784C1054.02 978.123 1051.23 982.864 1051.23 989.112C1051.23 999.473 1058.77 1004.66 1073.82 1004.66C1084.89 1004.66 1088.25 1007.63 1084.22 1013.87C1082.39 1016.7 1078.53 1017.35 1072.36 1015.87C1063.92 1013.85 1063.58 1014.12 1067.79 1019.37C1070.31 1022.5 1072.79 1025.66 1073.31 1026.39C1075.75 1029.8 1090.65 1012.14 1090.65 1005.83C1090.65 1000.24 1087.97 997.963 1078.33 995.407C1071.56 993.608 1064.25 992.129 1062.1 992.12C1055.79 992.092 1053.62 985.935 1058.1 980.773C1060.7 977.778 1065.09 976.682 1069.88 977.831C1078.14 979.812 1080.03 976.026 1073.4 970.767C1070.45 968.425 1066.72 969.282 1060.26 973.784ZM329.867 973.084C316.49 976.139 312.084 978.952 312.084 984.437C312.084 990.562 314.896 990.126 321.414 982.99C324.413 979.703 332.508 976.089 339.403 974.959C350.786 973.091 351.643 973.423 348.739 978.575C346.979 981.699 341.706 987.677 337.025 991.862C326.549 1001.23 326.105 1005.89 335.901 1003.65C339.968 1002.71 349.206 1000.97 356.433 999.774L369.574 997.602L358.897 1008.35C346.377 1020.94 345.868 1023.72 355.076 1029.22C361.233 1032.89 361.732 1032.7 359.951 1027.34C358.562 1023.15 361.923 1017.06 371.16 1007.03C378.417 999.156 384.356 992.013 384.356 991.168C384.356 989.68 363.289 993.476 349.906 997.375C344.879 998.839 346.256 995.919 355.875 984.701L368.371 970.124L354.189 970.444C346.391 970.623 335.445 971.81 329.867 973.084ZM963.864 980.327L957.606 987.392L964.997 981.411C971.942 975.791 973.884 973.263 971.256 973.263C970.631 973.263 967.307 976.441 963.864 980.327ZM590.115 988.28C586.351 994.104 577.566 1023.96 579.166 1025.49C581.485 1027.71 595.381 992.76 593.883 988.472C592.848 985.501 591.942 985.454 590.115 988.28ZM827.845 990.55C827.845 996.785 841.333 1027.35 843.268 1025.5C845.413 1023.45 834.382 989.313 830.913 987.263C829.224 986.268 827.845 987.746 827.845 990.55ZM948.973 991.316C944.889 996.295 945.004 996.405 950.215 992.503C953.375 990.132 955.963 987.658 955.963 987.008C955.963 984.425 953.266 986.085 948.973 991.316ZM1011.39 994.456C1007.31 999.435 1007.42 999.545 1012.63 995.642C1015.79 993.272 1018.38 990.798 1018.38 990.148C1018.38 987.564 1015.68 989.225 1011.39 994.456ZM647.972 1007.48C645.722 1013.35 644.011 1023.95 644.172 1031.03L644.467 1043.9L649.109 1028.21C651.662 1019.57 653.37 1008.98 652.907 1004.66C652.125 997.347 651.786 997.539 647.972 1007.48ZM769.232 1006.23C769.225 1011.41 771.167 1021.3 773.549 1028.21L777.878 1040.76L778.075 1028.21C778.184 1021.3 776.242 1011.41 773.759 1006.23L769.245 996.81L769.232 1006.23ZM1020.21 1011.64C1017.4 1015.48 1015.24 1022.18 1015.42 1026.55L1015.75 1034.49L1017.96 1026.93C1020.58 1017.97 1028.71 1012.37 1035.49 1014.86C1048.48 1019.62 1054.36 1053.47 1041.77 1051.02C1036.12 1049.92 1035.31 1042.41 1039.52 1030.17C1041.25 1025.11 1040.94 1023.38 1038.53 1024.81C1036.58 1025.96 1033.25 1032.45 1031.12 1039.23C1028.07 1048.95 1028.14 1052.57 1031.44 1056.36C1037.02 1062.8 1039.88 1062.44 1047.82 1054.3C1052.56 1049.44 1054.52 1043.18 1054.52 1032.92C1054.52 1008.56 1032.48 994.889 1020.21 1011.64ZM914.706 1012.68C908.583 1017.37 908.622 1017.43 915.721 1014.14C919.788 1012.26 923.112 1010.06 923.112 1009.26C923.112 1006.86 921.408 1007.55 914.706 1012.68ZM391.758 1021.14C389.964 1023.3 387.5 1030.37 386.278 1036.84C384.964 1043.81 382.188 1048.61 379.475 1048.61C372.616 1048.61 370.467 1043.26 374.465 1036.12C378.479 1028.95 375.115 1027.85 367.093 1033.7C362.189 1037.28 362.392 1038.43 369.406 1046.68C375.582 1053.95 378.775 1055.34 385.624 1053.69C392.477 1052.05 394.56 1049.21 396.235 1039.2C398.923 1023.13 406.252 1016.66 412.506 1024.83C415.67 1028.97 416.008 1032.33 413.679 1036.49C409.957 1043.14 411.603 1043.74 420.723 1039.08C427.365 1035.68 427.227 1035.3 414.51 1021.82C409.198 1016.19 396.193 1015.8 391.758 1021.14ZM886.976 1026.64C880.653 1029.95 876.661 1032.71 878.107 1032.78C881.586 1032.96 900.117 1023.75 900.117 1021.85C900.117 1019.79 899.923 1019.86 886.976 1026.64ZM860.696 1037.63C856.179 1040.09 853.961 1042.11 855.768 1042.11C857.575 1042.11 862.749 1040.09 867.266 1037.63C871.783 1035.16 874 1033.14 872.193 1033.14C870.387 1033.14 865.213 1035.16 860.696 1037.63ZM992.1 1040.21C992.1 1048.54 998.371 1052.67 1005.04 1048.73C1011.46 1044.94 1007.67 1034.6 999.458 1033.48C993.545 1032.68 992.1 1034 992.1 1040.21ZM829.487 1048.61C825.154 1050.39 824.596 1051.37 827.845 1051.48C830.555 1051.58 834.99 1050.29 837.7 1048.61C843.705 1044.91 838.518 1044.91 829.487 1048.61ZM463.757 1066.99C461.284 1068.53 459.858 1073.64 460.472 1078.78C461.389 1086.46 463.021 1087.86 471.053 1087.86C482.765 1087.86 489.483 1079.43 484.2 1071.38C480.088 1065.11 470.203 1062.99 463.757 1066.99ZM943.48 1068.08C934.085 1077.06 942.731 1090.76 956.604 1088.89C962.195 1088.13 964.459 1085.48 965.26 1078.78C966.794 1065.94 952.876 1059.1 943.48 1068.08ZM519.045 1097.28C519.045 1103.56 520.688 1105.13 527.258 1105.13C533.828 1105.13 535.471 1103.56 535.471 1097.28C535.471 1091 533.828 1089.43 527.258 1089.43C520.688 1089.43 519.045 1091 519.045 1097.28ZM888.166 1094.14C885.561 1100.62 889.092 1108.27 894.683 1108.27C897.229 1108.27 901.152 1106.15 903.402 1103.56C906.664 1099.8 906.664 1097.9 903.402 1094.14C901.152 1091.55 897.229 1089.43 894.683 1089.43C892.137 1089.43 889.204 1091.55 888.166 1094.14ZM580.053 1106.92C572.967 1113.69 573.585 1119.59 581.972 1125.21C595.066 1133.97 609.754 1119.06 599.1 1107.81C592.356 1100.69 586.843 1100.43 580.053 1106.92ZM827.023 1105.38C819.188 1109.74 819.688 1122.93 827.845 1127.1C841.652 1134.17 854.763 1116.41 843.613 1105.75C838.866 1101.22 834.671 1101.12 827.023 1105.38ZM644.454 1124.87C641.619 1128.14 641.78 1130.59 645.101 1134.94C651.044 1142.7 661.123 1138.96 659.713 1129.51C658.485 1121.28 649.851 1118.66 644.454 1124.87ZM764.334 1122.92C760.172 1126.89 762.162 1135.86 767.655 1137.87C770.684 1138.98 775.175 1137.97 777.629 1135.63C780.086 1133.28 781.144 1128.99 779.981 1126.09C777.872 1120.84 768.493 1118.94 764.334 1122.92ZM712.035 1249.5C694.798 1262.46 697.765 1280.05 721.053 1302.92C740.041 1321.57 742.534 1331.37 731.082 1342.31C724.275 1348.82 720.468 1350.17 713.523 1348.55C700.843 1345.59 692.298 1336.36 691.878 1325.17C691.316 1310.23 687.876 1313.66 683.754 1333.27C678.944 1356.17 679.036 1357.84 684.851 1353.23C688.662 1350.21 693.024 1350.2 705.383 1353.22C726.762 1358.45 743.825 1351.97 750.819 1335.98C757.59 1320.49 754.265 1311.6 733.796 1290.47C724.091 1280.45 716.151 1269.35 716.151 1265.79C716.151 1258.56 727.577 1249.55 736.742 1249.55C745.678 1249.55 758.815 1263.73 759.15 1273.74C759.377 1280.47 760.51 1278.85 764.015 1266.82C770.227 1245.48 770.162 1241.35 763.687 1246.49C759.81 1249.56 756.775 1249.65 750.392 1246.87C737.856 1241.41 721.283 1242.55 712.035 1249.5Z" fill="white" fill-opacity="0.2"/>
</svg>
