<svg width="142" height="143" viewBox="0 0 142 143" fill="none" xmlns="http://www.w3.org/2000/svg">
<circle cx="71.2354" cy="71.7047" r="70.7628" fill="white" fill-opacity="0.9"/>
<path d="M68.5982 94.1768L68.8056 62.3198L76.9523 62.3728L76.7449 94.2299L68.5982 94.1768ZM68.8345 57.8817L68.8871 49.7958L77.0338 49.8489L76.9811 57.9347L68.8345 57.8817Z" fill="#2356F6"/>
<path fill-rule="evenodd" clip-rule="evenodd" d="M67.4222 34.6191C59.2739 36.1155 52.7299 39.4812 46.9639 45.1411C36.5829 55.3314 33.1005 69.9172 37.8141 83.4667L38.8899 86.5593L36.1681 97.0075L33.4459 107.456L34.0674 108.276C34.4095 108.727 34.9919 109.141 35.3616 109.195C35.7314 109.249 40.2581 108.124 45.4208 106.696C53.3881 104.491 54.9344 104.15 55.6485 104.444C63.0958 107.512 65.2614 108.125 70.4434 108.634C78.3926 109.414 87.0165 107.407 93.8419 103.188C114.145 90.6395 117.917 63.5448 101.782 46.148C96.8216 40.7996 90.4891 37.1556 82.7229 35.1806C78.7402 34.1678 71.3553 33.8969 67.4222 34.6191ZM82.1087 39.4411C91.6885 41.9696 99.5499 48.21 103.853 56.7012C113.382 75.508 102.946 98.0393 82.1904 103.469C79.3701 104.207 78.3978 104.304 73.8531 104.304C69.3251 104.304 68.3309 104.205 65.5595 103.48C63.8276 103.027 60.8431 101.925 58.9273 101.032L55.4434 99.4079L47.3196 101.656C42.8514 102.892 39.1491 103.858 39.0922 103.803C39.0356 103.747 40.0208 99.7305 41.2819 94.8769L43.5745 86.0527L42.7398 84.0024C41.0928 79.9582 40.5343 77.4025 40.3436 73.0426C40.061 66.5778 41.1269 61.6507 43.9813 56.2278C48.853 46.9727 58.162 40.3968 68.7084 38.7606C69.2389 38.6785 71.9158 38.6513 74.6569 38.7003C78.4582 38.7684 80.2264 38.9443 82.1087 39.4411Z" fill="#2356F6"/>
</svg>
