<svg width="143" height="143" viewBox="0 0 143 143" fill="none" xmlns="http://www.w3.org/2000/svg">
<circle cx="71.6807" cy="71.6077" r="70.7628" fill="white" fill-opacity="0.9"/>
<ellipse cx="71.6817" cy="53.1162" rx="30.9571" ry="31.3279" fill="#2356F6"/>
<path d="M71.537 121.425L42.8925 64.6683L100.72 64.1672L71.537 121.425Z" fill="#2356F6"/>
<ellipse cx="71.6826" cy="53.1169" rx="23.8777" ry="25.1766" fill="white"/>
<path fill-rule="evenodd" clip-rule="evenodd" d="M58.1683 37.294C57.1499 37.5137 56.2824 38.1779 55.831 39.0835C55.4614 39.8251 55.4747 39.3684 55.4932 50.6703L55.5101 61.0288L55.6515 61.4371C55.8346 61.9654 56.3399 62.6681 56.7614 62.9805C57.2178 63.3187 57.8349 63.589 58.3265 63.6659C58.59 63.7072 60.9817 63.7305 64.9822 63.7308L71.2265 63.7313L71.3891 64.1506C71.4786 64.3812 71.908 65.5065 72.3433 66.6512C72.935 68.2069 73.176 68.7677 73.2974 68.8722L73.4598 69.012L79.1682 69.0111C84.0359 69.0103 84.9362 68.9964 85.2821 68.9163C86.5414 68.625 87.6041 67.5195 87.8179 66.2785C87.867 65.9932 87.8821 62.8388 87.8693 55.5306L87.8512 45.1865L87.7047 44.7827C87.3623 43.8386 86.6392 43.1083 85.6538 42.7117C85.3201 42.5773 85.3091 42.5771 78.6511 42.5461L71.9825 42.515L71.1298 40.061C70.4372 38.0676 70.2424 37.5721 70.0916 37.4207L69.9061 37.2343L64.2271 37.2232C59.7272 37.2144 58.4691 37.2291 58.1683 37.294ZM69.2152 38.6477C69.4186 39.096 77.4782 62.3417 77.4435 62.3803C77.4204 62.406 73.131 62.42 67.9115 62.4113L58.4214 62.3955L58.064 62.231C57.6088 62.0215 57.2202 61.6401 57.0068 61.1933L56.8392 60.8424V50.4672V40.0921L57.0068 39.7412C57.3007 39.1258 57.8793 38.6756 58.5113 38.5706C58.6707 38.5441 61.13 38.5192 63.9764 38.5152L69.1518 38.5079L69.2152 38.6477ZM85.3634 44.0255C85.7766 44.2252 86.1562 44.6068 86.3543 45.0215L86.5221 45.3729V55.7791V66.1853L86.3853 66.4758C86.1917 66.8872 85.7768 67.3034 85.3602 67.5042L85.0031 67.6763L81.0475 67.6938C78.8719 67.7035 76.6674 67.7035 76.1486 67.6938L75.2054 67.6763L77.1455 65.507C78.9178 63.5253 79.0855 63.3186 79.0855 63.1152C79.0856 62.9927 78.8081 62.0927 78.4688 61.1152L77.8521 59.3378L78.0733 59.1601C78.1949 59.0623 78.4933 58.7946 78.7364 58.5652L79.1784 58.148L80.546 59.4747C81.2982 60.2043 82.0107 60.8593 82.1293 60.9303C82.375 61.0773 82.5515 61.0921 82.7898 60.9856C83.0726 60.8591 83.2325 60.3815 83.077 60.1279C83.0455 60.0767 82.3563 59.3875 81.5454 58.5964L80.0711 57.158L80.4254 56.7015C81.5106 55.3029 82.4416 53.6663 82.8761 52.3932L83.0669 51.834L83.8768 51.803C84.3535 51.7847 84.744 51.7397 84.8259 51.6937C85.2124 51.4767 85.2797 50.9968 84.9666 50.6895L84.7719 50.4983L83.6534 50.494C83.0382 50.4916 81.9154 50.4934 81.1583 50.498L79.7817 50.5063L79.7815 50.0829C79.7812 49.5872 79.6505 49.3204 79.3474 49.1972C79.0902 49.0926 78.8558 49.1559 78.6329 49.3901C78.4683 49.563 78.4526 49.6196 78.4526 50.0399V50.5002L76.6024 50.4837L74.7523 50.4672L74.2665 49.0694C73.9994 48.3006 73.4808 46.8115 73.1143 45.7603L72.4477 43.849L78.7571 43.8654L85.0664 43.8818L85.3634 44.0255ZM64.5897 45.3083C64.5014 45.3555 64.3949 45.4593 64.3532 45.5388C64.1505 45.9255 60.9214 54.9482 60.9214 55.1278C60.9214 55.3859 61.1714 55.6927 61.4264 55.7477C61.7147 55.8099 62.0289 55.6311 62.1718 55.3237C62.238 55.1812 62.5572 54.3308 62.8811 53.4338L63.47 51.803H64.936H66.4019L67.0547 53.6007C67.4138 54.5895 67.7479 55.4551 67.7972 55.5242C67.8466 55.5934 67.9897 55.6778 68.1152 55.7118C68.5357 55.8258 68.9592 55.5331 68.9592 55.1284C68.9592 54.9748 66.0595 46.8723 65.5947 45.7273C65.4036 45.2564 65.0011 45.0886 64.5897 45.3083ZM65.4077 49.0727C65.6495 49.7372 65.867 50.3298 65.8911 50.3896C65.9316 50.4903 65.8622 50.4983 64.947 50.4983C64.4038 50.4983 63.9593 50.4882 63.9593 50.4759C63.9593 50.4636 64.1729 49.8698 64.434 49.1564C64.695 48.443 64.9086 47.8473 64.9086 47.8327C64.9086 47.731 65.0219 48.0125 65.4077 49.0727ZM81.6804 51.8324C81.6804 51.9416 81.229 52.9465 80.9121 53.5425C80.5582 54.2085 79.6707 55.5739 79.3184 55.9946L79.164 56.179L78.9824 55.9689C78.4728 55.3791 78.1361 54.9315 77.8621 54.4792C77.5201 53.9148 77.3778 53.791 77.0715 53.791C76.7813 53.791 76.4274 54.1299 76.4274 54.4079C76.4274 54.7791 76.9743 55.6529 77.847 56.6759L78.2676 57.169L77.8402 57.5918C77.558 57.8709 77.3987 57.9883 77.3713 57.9375C77.3484 57.895 76.8688 56.5374 76.3053 54.9205C75.7419 53.3037 75.2652 51.9408 75.2461 51.8919C75.2162 51.8154 75.6658 51.803 78.4459 51.803C80.2249 51.803 81.6804 51.8162 81.6804 51.8324ZM76.7974 63.9021C76.7093 63.996 76.0306 64.7543 75.2891 65.5871L73.9408 67.1012L73.3171 65.4688C72.974 64.571 72.6933 63.8128 72.6933 63.7838C72.6933 63.7549 73.6527 63.7313 74.8253 63.7313H76.9574L76.7974 63.9021Z" fill="#003EFF"/>
</svg>
