<svg width="142" height="143" viewBox="0 0 142 143" fill="none" xmlns="http://www.w3.org/2000/svg">
<circle cx="71.2374" cy="71.6571" r="70.7628" fill="white" fill-opacity="0.9"/>
<path fill-rule="evenodd" clip-rule="evenodd" d="M59.984 52.2197C58.0915 52.8137 56.6914 54.1411 56.0576 55.9424L55.7874 56.7103V75.3226V93.9349L56.0463 94.7429C56.8305 97.1905 59.0781 98.7582 61.8027 98.7582C62.8621 98.7582 63.7249 98.5473 64.5814 98.0789C65.1248 97.7817 67.5625 96.214 77.2339 89.9417C80.816 87.6184 83.4378 85.9199 89.8969 81.7381C93.0262 79.712 93.6036 79.2589 94.183 78.374C95.3571 76.5806 95.3393 73.9948 94.1412 72.303C93.4386 71.3111 93.2045 71.1436 86.194 66.6201C85.1766 65.9637 80.026 62.6289 74.7482 59.2096C69.4704 55.7903 64.892 52.8502 64.5741 52.6761C64.2562 52.5021 63.7135 52.2789 63.368 52.1802C62.5059 51.9335 60.8334 51.9531 59.984 52.2197Z" fill="#2356F6"/>
</svg>
