<svg width="288" height="284" viewBox="0 0 288 284" fill="none" xmlns="http://www.w3.org/2000/svg">
<path fill-rule="evenodd" clip-rule="evenodd" d="M147.411 2.48406C145.348 5.09146 143.692 9.25759 138.934 23.8088C136.524 31.1788 134.022 38.1242 133.373 39.2446C132.491 40.767 130.831 41.5204 126.783 42.2344C123.807 42.7589 116.67 44.5539 110.924 46.2223L100.475 49.2576L86.4747 36.4966C78.7746 29.4781 71.4895 23.5538 70.2847 23.3303C67.7798 22.8668 63.0513 25.376 54.228 31.8493C45.4515 38.2884 44.736 39.3914 46.3117 44.047C47.0244 46.1517 50.9878 54.2274 55.1199 61.9927C59.2511 69.7581 62.6582 76.549 62.6907 77.0833C62.7231 77.6176 60.2895 82.0169 57.282 86.8602C54.2755 91.7035 50.5885 98.1497 49.091 101.185L46.3665 106.704L27.8154 107.149C17.6118 107.394 8.23281 107.912 6.97388 108.302C5.71401 108.692 4.26175 110.085 3.7463 111.397C2.37936 114.877 0.779518 124.833 0.480659 131.712C0.247438 137.097 0.436248 137.864 2.38254 139.442C4.31303 141.008 11.9978 143.65 33.8342 150.255L40.6829 152.326L41.6905 158.466C42.245 161.843 44.0476 169.04 45.696 174.458L48.6939 184.311L35.3669 199.165C27.3635 208.084 22.0823 214.733 22.1476 215.808C22.2704 217.83 28.736 227.657 34.1823 234.098C37.2799 237.761 38.2652 238.355 40.9846 238.196C44.3947 237.996 52.5259 234.47 65.704 227.475C78.5602 220.651 76.9865 220.789 84.7362 225.803C88.514 228.247 95.1436 231.89 99.4693 233.898L107.335 237.548L107.86 256.005C108.435 276.174 109.05 278.925 113.269 280.224C117.139 281.414 137.744 284.113 138.937 283.585C140.624 282.838 144.578 273.375 149.476 258.365C154.544 242.835 154.125 243.311 164.038 241.753C167.373 241.228 173.835 239.582 178.398 238.093L186.695 235.387L200.268 247.683C207.732 254.445 214.931 260.47 216.264 261.074C218.399 262.04 219.164 261.896 222.685 259.869C228.139 256.728 238.908 248.554 241.008 245.959C242.694 243.877 242.688 243.746 240.718 239.183C239.613 236.623 235.41 228.385 231.378 220.874L224.045 207.22L229.029 199.724C231.77 195.6 235.467 189.064 237.244 185.197L240.476 178.168L258.913 177.602C269.054 177.29 278.351 176.696 279.574 176.281C283.408 174.98 284.917 171.287 286.581 159.133C288.024 148.594 288.027 147.365 286.62 146.011C284.886 144.341 274.476 140.607 259.333 136.221C253.798 134.618 248.74 132.74 248.093 132.046C247.446 131.354 246.507 128.76 246.006 126.285C245.505 123.808 243.623 116.883 241.825 110.896L238.555 100.01L250.661 87.0429C265.104 71.5726 266.117 70.0648 264.476 66.4744C262.119 61.3201 250.083 46.648 247.876 46.2401C245.327 45.7681 238.406 48.7171 221.999 57.2648L210.084 63.4726L202.263 58.554C197.96 55.8495 191.406 52.2286 187.698 50.5081L180.955 47.3798L179.781 28.0628C178.489 6.79028 178.095 5.41289 172.918 4.08801C170.026 3.34856 151.104 0.650215 149.476 0.7455C149.078 0.768786 148.148 1.55164 147.411 2.48406ZM154.859 82.2494C163.918 83.9461 175.782 89.3011 182.572 94.7551C190.524 101.144 197.818 110.873 201.546 120.06C204.13 126.433 204.619 128.924 205.244 138.915C205.877 149.023 205.713 151.3 203.905 157.571C198.263 177.144 185.539 191.313 166.617 199.093C160.022 201.805 158.038 202.183 147.077 202.819C136.779 203.417 133.907 203.254 128.65 201.777C113.197 197.433 99.1988 187.039 90.3923 173.369C80.4328 157.912 78.7407 137.139 86.0083 119.548C90.4878 108.707 102.514 95.0164 112.677 89.1904C123.424 83.0298 142.377 79.9109 154.859 82.2494Z" fill="#3768FF"/>
</svg>
