<svg width="1358" height="65" viewBox="0 0 1358 65" fill="none" xmlns="http://www.w3.org/2000/svg">
<path fill-rule="evenodd" clip-rule="evenodd" d="M21.7331 4.68774L1336.3 2.70754C1346.79 2.69173 1355.31 11.1855 1355.32 21.6789L1355.39 64.9625H1357.39L1357.32 21.6759C1357.31 10.0779 1347.89 0.690073 1336.29 0.707544L21.7301 2.68774C10.1321 2.70522 0.744272 12.1214 0.761743 23.7193L0.82387 64.9625H2.82387L2.76174 23.7163C2.74593 13.2229 11.2397 4.70355 21.7331 4.68774Z" fill="#C6C6C6"/>
<path fill-rule="evenodd" clip-rule="evenodd" d="M632.387 3.96973H975.301C985.242 3.96973 993.301 12.0286 993.301 21.9697V56.8164C993.301 59.7489 992.6 62.5175 991.356 64.9639H993.571C994.683 62.4753 995.301 59.718 995.301 56.8164V21.9697C995.301 10.924 986.346 1.96973 975.301 1.96973H632.387C621.341 1.96973 612.387 10.924 612.387 21.9697V56.8164C612.387 59.718 613.005 62.4753 614.116 64.9639H616.332C615.088 62.5175 614.387 59.7489 614.387 56.8164V21.9697C614.387 12.0286 622.446 3.96973 632.387 3.96973Z" fill="#C6C6C6"/>
</svg>
