<svg width="45" height="45" viewBox="0 0 45 45" fill="none" xmlns="http://www.w3.org/2000/svg">
<path fill-rule="evenodd" clip-rule="evenodd" d="M20.8493 0.297062C18.4877 0.527902 17.0928 0.804911 15.2211 1.41452C12.8041 2.20169 10.3657 3.4986 8.32764 5.0809C7.48515 5.73505 5.54173 7.64276 4.87533 8.46976C2.35686 11.5955 0.754702 15.275 0.157328 19.3051C-0.0524426 20.7203 -0.0524426 23.6289 0.157328 25.044C0.754702 29.0742 2.35686 32.7537 4.87533 35.8794C5.54173 36.7064 7.48515 38.6141 8.32764 39.2683C11.5119 41.7405 15.2603 43.3132 19.3659 43.8996C20.8075 44.1055 23.7706 44.1055 25.2122 43.8996C29.3179 43.3132 33.0662 41.7405 36.2505 39.2683C37.093 38.6141 39.0364 36.7064 39.7028 35.8794C42.2213 32.7537 43.8234 29.0742 44.4208 25.044C44.6306 23.6289 44.6306 20.7203 44.4208 19.3051C43.8234 15.275 42.2213 11.5955 39.7028 8.46976C39.0364 7.64276 37.093 5.73505 36.2505 5.0809C33.1239 2.65352 29.4045 1.0701 25.4799 0.495867C24.3961 0.337234 21.6458 0.219201 20.8493 0.297062ZM31.8003 12.8382C32.1855 13.2163 32.1581 13.2767 28.8278 19.3709C27.097 22.5383 25.595 25.2142 25.4902 25.3175C25.3853 25.4207 22.6592 26.8951 19.4322 28.5938C15.0918 30.8785 13.4894 31.6823 13.275 31.6823C12.8798 31.6823 12.6033 31.4161 12.6033 31.0358C12.6033 30.8085 13.3442 29.3824 15.7496 24.9789C17.4801 21.8112 18.9821 19.1349 19.0873 19.0314C19.1925 18.928 21.9095 17.4558 25.125 15.7599C31.3417 12.481 31.4072 12.4523 31.8003 12.8382ZM25.1822 17.3689C22.862 18.5887 20.929 19.621 20.8866 19.6626C20.8418 19.7065 21.6477 20.5608 22.8049 21.6959C24.7908 23.6439 24.8011 23.6524 24.9298 23.4493C25.246 22.9505 29.4704 15.1508 29.4242 15.151C29.4113 15.151 27.5023 16.1491 25.1822 17.3689ZM19.6483 20.8999C19.5127 21.1139 15.6447 28.2014 15.3159 28.8385L15.1259 29.2067L15.4135 29.0637C16.4526 28.5466 23.5748 24.7858 23.6622 24.708C23.7452 24.6342 23.3091 24.1598 21.7739 22.6539C19.7873 20.7053 19.7771 20.6968 19.6483 20.8999Z" fill="#3768FF"/>
</svg>
