<svg width="257" height="253" viewBox="0 0 257 253" fill="none" xmlns="http://www.w3.org/2000/svg">
<path fill-rule="evenodd" clip-rule="evenodd" d="M165.463 1.18136C162.974 3.05386 160.477 6.42658 152.681 18.4446C148.732 24.5314 144.803 30.214 143.948 31.0739C142.786 32.242 141.107 32.5363 137.285 32.2404C134.475 32.0227 127.606 31.9851 122.022 32.1558L111.868 32.4678L102.317 17.7102C97.0633 9.59364 91.9205 2.56014 90.8878 2.07899C88.7406 1.0796 83.8719 2.24486 74.3557 6.03451C64.89 9.80423 63.979 10.6329 64.2786 15.197C64.4143 17.2605 66.0433 25.4632 67.8991 33.4251C69.7541 41.3869 71.1909 48.3018 71.0914 48.7911C70.992 49.2805 67.7376 52.6829 63.8588 56.3526C59.9808 60.0225 55.1031 64.98 53.0214 67.3699L49.2351 71.7147L32.3986 67.8094C23.1379 65.662 14.555 63.9526 13.3257 64.0119C12.0957 64.0711 10.4504 64.9902 9.66947 66.0541C7.5985 68.875 3.75753 77.4822 1.83114 83.6158C0.323587 88.4182 0.309022 89.154 1.68415 91.0286C3.04793 92.8886 9.34161 97.0552 27.4427 108.08L33.12 111.538L32.5497 117.309C32.2363 120.483 32.1284 127.391 32.3098 132.66L32.6401 142.241L17.0436 152.543C7.67762 158.729 1.31326 163.499 1.1132 164.484C0.736917 166.336 4.20051 176.699 7.56062 183.771C9.47159 187.793 10.217 188.558 12.7078 189.045C15.8311 189.657 24.0133 188.364 37.5825 185.115C50.82 181.945 49.3675 181.704 55.1484 188.025C57.9665 191.106 63.0677 195.929 66.4851 198.744L72.699 203.862L68.7264 220.629C64.3869 238.95 64.2784 241.573 67.7708 243.724C70.9742 245.696 88.9056 252.912 90.1088 252.713C91.8095 252.431 97.6554 244.815 105.688 232.416C113.999 219.587 113.507 219.92 122.822 220.815C125.955 221.116 132.179 221.131 136.653 220.848L144.787 220.333L154.066 234.572C159.168 242.402 164.209 249.507 165.265 250.361C166.958 251.727 167.683 251.775 171.346 250.764C177.02 249.198 188.701 244.326 191.22 242.473C193.242 240.987 193.268 240.867 192.591 236.295C192.211 233.73 190.405 225.325 188.578 217.616L185.254 203.601L191.555 197.998C195.02 194.915 199.928 189.879 202.463 186.805L207.07 181.215L223.833 184.984C233.053 187.057 241.58 188.679 242.784 188.588C246.554 188.306 248.805 185.325 253.233 174.751C257.073 165.581 257.372 164.474 256.429 162.926C255.268 161.018 246.779 155.234 234.18 147.764C229.574 145.034 225.465 142.166 225.049 141.39C224.632 140.616 224.41 138.059 224.555 135.71C224.699 133.36 224.67 126.679 224.491 120.862L224.164 110.286L238.206 101.402C254.957 90.8035 256.234 89.6788 255.618 86.0599C254.734 80.8647 247.414 64.8396 245.522 63.9595C243.338 62.9423 236.386 63.9952 219.53 67.8954L207.29 70.728L201.422 64.477C198.193 61.0396 193.155 56.253 190.225 53.8406L184.898 49.4544L188.493 31.7619C192.452 12.2782 192.428 10.9445 188.078 8.54812C185.649 7.21009 169.235 0.384788 167.744 0.0928264C167.379 0.0214766 166.352 0.511613 165.463 1.18136ZM152.965 74.843C160.725 78.4757 170.135 86.0585 174.945 92.5532C180.577 100.161 184.811 110.627 185.96 119.778C186.755 126.124 186.596 128.484 184.753 137.64C182.889 146.901 182.192 148.917 179.052 154.152C169.249 170.494 154.361 180.318 135.423 182.942C128.823 183.858 126.942 183.738 116.904 181.767C107.473 179.916 104.923 179.103 100.538 176.55C87.6483 169.046 77.5285 156.424 72.8794 142.052C67.6213 125.801 71.0992 106.675 81.8904 92.4985C88.5414 83.7617 102.685 74.2067 113.254 71.3118C124.429 68.2504 142.272 69.8369 152.965 74.843Z" fill="#3768FF"/>
</svg>
