<svg width="367" height="360" viewBox="0 0 367 360" fill="none" xmlns="http://www.w3.org/2000/svg">
<path fill-rule="evenodd" clip-rule="evenodd" d="M205.712 0.655054C191.271 -0.889095 191.364 -0.962201 186.319 15.9395C184.322 22.6321 181.825 30.9944 180.771 34.5225L178.855 40.9362L164.782 42.6021C149.522 44.4083 148.995 44.3113 146.418 39.2144C144.418 35.2585 130.027 13.9874 127.66 11.4881L125.625 9.33767L121.308 10.4374C115.725 11.8593 101.56 18.4248 100.492 20.085C99.3946 21.7905 100.269 27.2171 104.553 45.3041C106.521 53.6098 108.025 60.9222 107.897 61.5533C107.768 62.1852 104.477 65.0216 100.584 67.8569C96.6896 70.6919 91.7988 74.3942 89.7136 76.0843L85.923 79.1571L77.0673 74.5503C61.9342 66.6775 51.243 61.5955 48.7937 61.1107C46.9587 60.747 45.7733 61.3342 43.4027 63.7781C38.7653 68.5599 31.0064 79.3228 30.5389 81.6235C30.0944 83.8111 34.2793 88.9526 49.6904 105.15C54.1861 109.876 57.2995 113.891 57.3568 115.039C57.5062 118.029 47.9121 140.035 46.2558 140.503C45.4868 140.721 36.3495 141.216 25.9518 141.603C2.26369 142.488 3.57932 141.721 1.56725 155.811C0.763273 161.443 0.372493 167.087 0.699724 168.353C1.58549 171.782 4.4718 173.437 15.0018 176.555C20.2407 178.106 28.4758 180.595 33.3016 182.085L42.0754 184.795L43.0667 193.762C43.6124 198.693 44.5388 204.892 45.1258 207.536L46.1928 212.343L29.1078 223.163C19.7103 229.112 11.4958 234.61 10.8527 235.378C10.0083 236.384 9.92254 237.616 10.5438 239.801C11.9868 244.873 16.0799 254.082 18.6766 258.094C21.7989 262.919 21.6557 262.92 43.8672 257.921C53.3958 255.777 61.6493 253.984 62.2084 253.938C62.7685 253.89 66.7419 258.19 71.0406 263.494C75.3382 268.797 79.397 273.737 80.0603 274.47C81.1634 275.692 80.7475 276.749 75.174 286.894C71.8231 292.993 67.4818 301.335 65.5275 305.434C62.1325 312.55 62.0261 312.972 63.1484 314.815C64.7605 317.464 78.4706 328.038 82.1892 329.502C85.897 330.962 86.0534 330.857 103.097 315.504C109.793 309.473 115.977 304.282 116.84 303.969C119.036 303.173 141.025 311.565 142.531 313.774C143.152 314.685 143.98 322.956 144.413 332.564C145.245 351.034 145.741 354.062 148.274 356.106C150.107 357.587 170.521 360.067 173.521 359.173C175.776 358.502 178.03 353.03 183.156 335.785C185.545 327.746 188.1 320.587 188.833 319.875C189.604 319.127 195.772 317.857 203.473 316.861L216.78 315.14L227.73 331.621C233.752 340.687 239.475 348.518 240.448 349.026C243.823 350.787 263.921 343.36 266.258 339.488C267.698 337.099 267.258 334.381 261.704 311.38L258.431 297.825L265.3 292.785C269.078 290.012 274.123 286.096 276.511 284.084L280.853 280.424L287.425 283.7C291.039 285.502 299.128 289.609 305.402 292.827C311.675 296.045 317.414 298.796 318.155 298.941C318.896 299.086 320.819 298.179 322.428 296.926C326.465 293.782 335.815 281.279 336.444 278.183C337.049 275.203 336.046 273.906 320.282 257.287C314.48 251.169 309.632 245.592 309.51 244.894C309.388 244.195 310.877 239.905 312.82 235.359C314.762 230.813 316.917 225.549 317.61 223.662C318.302 221.775 319.396 219.953 320.041 219.614C320.686 219.275 328.926 218.645 338.352 218.215C359.574 217.247 362.154 216.824 363.469 214.101C364.024 212.954 365.034 207.196 365.715 201.306C367.415 186.608 369.129 188.146 341.946 179.985C333.296 177.389 325.88 174.954 325.464 174.573C325.049 174.194 324.684 172.599 324.654 171.031C324.624 169.462 323.791 163.481 322.803 157.739L321.006 147.299L338.996 135.909C348.89 129.644 357.085 123.98 357.207 123.323C357.631 121.044 352.131 107.157 348.417 101.129C347.487 99.6203 345.877 98.2191 344.839 98.0158C342.712 97.5993 330.507 99.8924 315.309 103.563C309.699 104.919 304.742 105.955 304.295 105.868C303.847 105.78 300.872 102.32 297.684 98.1782C294.495 94.037 290.818 89.4959 289.512 88.0866C288.206 86.6773 287.064 84.8765 286.974 84.0853C286.885 83.2941 290.741 75.1846 295.542 66.0637C300.344 56.9437 304.45 48.6096 304.666 47.5449C305.148 45.1734 303.186 43.0637 294.032 36.1097C284.013 28.4987 283.132 28.1998 279.062 31.0383C277.219 32.3239 269.854 38.8174 262.697 45.4673C252.651 54.8017 249.392 57.368 248.401 56.7232C246.261 55.3314 228.331 48.0294 225.822 47.5284C223.97 47.158 223.461 46.5487 223.406 44.6335C223.12 34.7858 221.977 13.1172 221.56 9.62217C221.279 7.27497 220.337 4.62375 219.465 3.72932C217.762 1.9801 217.451 1.91123 205.712 0.655054ZM221.988 92.8859C229.721 96.0781 240.838 103.019 247.625 108.892C264.842 123.791 275.737 144.104 279.185 167.738C280.579 177.288 280.129 185.897 277.578 198.448C274.136 215.39 269.883 224.803 260.101 237.133C240.684 261.606 212.99 274.868 182.006 274.529C170.388 274.403 152.147 270.07 141.23 264.844C105.178 247.586 83.9322 210.112 87.5837 170.221C89.7324 146.752 103.283 121.838 121.96 107.017C138.951 93.5346 157.608 86.2976 178.313 85.1584C185.549 84.76 188.81 85.0908 201.192 87.4782C211.09 89.3864 217.632 91.0883 221.988 92.8859Z" fill="#3768FF"/>
</svg>
