<svg width="368" height="362" viewBox="0 0 368 362" fill="none" xmlns="http://www.w3.org/2000/svg">
<path fill-rule="evenodd" clip-rule="evenodd" d="M193.869 1.07576C179.355 0.485902 179.442 0.406877 175.564 17.6026C174.028 24.4117 172.108 32.9196 171.298 36.5091L169.824 43.0345L155.897 45.6232C140.794 48.43 140.263 48.368 137.343 43.4522C135.077 39.637 119.265 19.3612 116.733 17.0233L114.555 15.0118L110.323 16.3932C104.85 18.1795 91.1655 25.6629 90.213 27.3897C89.2348 29.1635 90.4777 34.5204 95.9885 52.2846C98.519 60.4421 100.52 67.6389 100.435 68.277C100.35 68.916 97.2597 71.9627 93.5689 75.0479C89.8772 78.1329 85.2503 82.1489 83.2854 83.9724L79.7132 87.288L70.5627 83.2746C54.9258 76.4158 43.9114 72.0492 41.4345 71.7267C39.5788 71.4847 38.4361 72.1486 36.2379 74.7431C31.9376 79.8194 24.9316 91.069 24.6224 93.3953C24.3283 95.6072 28.8552 100.462 45.3384 115.608C50.1467 120.027 53.5275 123.829 53.6631 124.969C54.0165 127.943 45.9477 150.532 44.3271 151.108C43.5747 151.376 34.4918 152.471 24.144 153.542C0.569578 155.984 1.82991 155.133 0.785046 169.323C0.36773 174.995 0.363468 180.652 0.776458 181.894C1.89457 185.257 4.88744 186.718 15.6068 189.136C20.9398 190.339 29.3265 192.28 34.2433 193.449L43.1824 195.575L44.7842 204.456C45.6656 209.341 47.0135 215.464 47.7798 218.064L49.1728 222.79L32.8656 234.71C23.8958 241.265 16.0755 247.291 15.4863 248.099C14.7126 249.159 14.7111 250.394 15.4803 252.533C17.2666 257.498 21.9797 266.417 24.8447 270.249C28.2897 274.858 28.1469 274.869 49.9668 268.419C59.3274 265.652 67.4398 263.32 67.9945 263.236C68.5501 263.152 72.8084 267.181 77.4597 272.189C82.1101 277.198 86.4973 281.859 87.2092 282.547C88.3932 283.693 88.0505 284.776 83.1828 295.265C80.2561 301.57 76.4946 310.18 74.8248 314.398C71.9236 321.721 71.8464 322.15 73.0921 323.915C74.8814 326.451 89.2833 336.099 93.0935 337.315C96.8927 338.528 97.0415 338.412 112.998 321.971C119.266 315.514 125.082 309.927 125.922 309.558C128.058 308.619 150.571 315.545 152.224 317.649C152.906 318.518 154.298 326.716 155.387 336.274C157.478 354.647 158.181 357.636 160.847 359.508C162.778 360.865 183.315 361.995 186.247 360.906C188.451 360.088 190.326 354.48 194.262 336.936C196.097 328.758 198.157 321.446 198.839 320.688C199.558 319.891 205.625 318.218 213.24 316.717L226.4 314.124L238.451 329.847C245.079 338.496 251.325 345.933 252.33 346.375C255.818 347.91 275.363 339.177 277.43 335.159C278.704 332.681 278.079 329.999 270.965 307.414L266.774 294.106L273.283 288.625C276.863 285.609 281.629 281.37 283.874 279.205L287.957 275.267L294.737 278.103C298.466 279.663 306.818 283.228 313.298 286.026C319.776 288.824 325.691 291.19 326.44 291.286C327.189 291.382 329.045 290.351 330.565 288.995C334.379 285.593 342.853 272.502 343.269 269.371C343.669 266.358 342.58 265.131 325.716 249.586C319.509 243.864 314.29 238.619 314.121 237.931C313.952 237.242 315.145 232.863 316.772 228.199C318.399 223.535 320.19 218.141 320.752 216.213C321.314 214.285 322.281 212.395 322.901 212.014C323.522 211.633 331.7 210.462 341.075 209.413C362.184 207.05 364.728 206.458 365.855 203.654C366.33 202.474 366.944 196.662 367.222 190.74C367.913 175.964 369.729 177.386 342.049 171.033C333.241 169.012 325.675 167.07 325.235 166.718C324.795 166.367 324.321 164.8 324.184 163.237C324.047 161.673 322.807 155.761 321.429 150.097L318.923 139.799L336.094 127.249C345.537 120.347 353.327 114.157 353.404 113.493C353.671 111.191 347.235 97.6978 343.117 91.9275C342.087 90.4838 340.385 89.1917 339.335 89.0572C337.184 88.7818 325.163 91.8732 310.25 96.5366C304.746 98.2582 299.871 99.6188 299.418 99.5608C298.965 99.5028 295.76 96.2466 292.297 92.324C288.832 88.4021 284.853 84.1132 283.454 82.7931C282.054 81.473 280.792 79.7514 280.649 78.9679C280.505 78.1843 283.799 69.8392 287.966 60.4228C292.133 51.0072 295.661 42.4215 295.804 41.3449C296.123 38.947 294.021 36.9713 284.412 30.6357C273.896 23.7014 272.996 23.4612 269.13 26.5613C267.378 27.9653 260.474 34.9291 253.787 42.0353C244.402 52.0101 241.325 54.7852 240.293 54.2071C238.062 52.9593 219.674 46.8542 217.136 46.5196C215.263 46.2719 214.714 45.6975 214.528 43.7902C213.57 33.9835 210.949 12.439 210.293 8.97931C209.853 6.65588 208.732 4.07265 207.801 3.23764C205.982 1.60446 205.667 1.55625 193.869 1.07576ZM216.41 92.0274C224.343 94.7032 235.91 100.897 243.083 106.309C261.279 120.041 273.538 139.591 278.593 162.945C280.636 172.382 280.775 181.001 279.088 193.692C276.811 210.822 273.21 220.494 264.293 233.44C246.592 259.137 219.867 274.192 188.93 275.894C177.329 276.533 158.833 273.41 147.583 268.916C110.433 254.07 86.6748 218.079 87.5925 178.038C88.1327 154.479 99.9501 128.73 117.573 112.713C133.604 98.1417 151.725 89.6926 172.305 87.1927C179.497 86.3189 182.774 86.4342 195.291 88.001C205.298 89.2532 211.941 90.5206 216.41 92.0274Z" fill="#3768FF"/>
</svg>
