<svg width="266" height="263" viewBox="0 0 266 263" fill="none" xmlns="http://www.w3.org/2000/svg">
<path fill-rule="evenodd" clip-rule="evenodd" d="M147.565 1.86472C145.434 4.12331 143.555 7.86188 137.941 21.0008C135.097 27.6554 132.203 33.9085 131.509 34.8978C130.565 36.242 128.961 36.8106 125.142 37.1535C122.335 37.4053 115.56 38.5082 110.085 39.6033L100.131 41.5962L88.1751 28.6365C81.5993 21.5087 75.319 15.43 74.2183 15.1272C71.9299 14.4986 67.3321 16.4552 58.6056 21.7698C49.9255 27.0563 49.1704 28.0243 50.2518 32.4729C50.741 34.4842 53.7595 42.2983 56.9601 49.8376C60.1597 57.3769 62.7669 63.9538 62.7532 64.4525C62.7395 64.9513 60.1181 68.8449 56.9272 73.1056C53.7372 77.3663 49.7836 83.062 48.1436 85.763L45.1602 90.6737L27.8934 89.6192C18.3961 89.0397 9.64235 88.7795 8.44105 89.042C7.23888 89.3045 5.77567 90.4835 5.1892 91.6616C3.63397 94.7857 1.33089 103.906 0.488769 110.271C-0.16985 115.255 -0.0574624 115.983 1.62077 117.602C3.28531 119.209 10.2061 122.271 29.9457 130.133L36.1368 132.598L36.5687 138.381C36.8066 141.561 37.8902 148.387 38.9765 153.551L40.9524 162.939L27.355 175.681C19.1894 183.332 13.7384 189.091 13.7109 190.094C13.659 191.982 18.8577 201.621 23.3876 208.033C25.964 211.681 26.8304 212.311 29.3693 212.378C32.5529 212.462 40.3947 209.83 53.2087 204.375C65.7096 199.054 64.2366 199.058 71.023 204.328C74.3313 206.896 80.1899 210.804 84.0428 213.011L91.0488 217.024L90.0215 234.208C88.9004 252.986 89.2453 255.59 93.0579 257.13C96.5549 258.542 115.471 262.678 116.623 262.282C118.25 261.721 122.7 253.245 128.481 239.691C134.463 225.667 134.035 226.077 143.37 225.414C146.51 225.19 152.647 224.171 157.008 223.15L164.936 221.293L176.534 233.786C182.912 240.657 189.103 246.823 190.292 247.489C192.195 248.555 192.918 248.482 196.354 246.877C201.677 244.392 212.351 237.651 214.514 235.407C216.251 233.606 216.256 233.484 214.802 229.09C213.985 226.626 210.757 218.641 207.629 211.347L201.939 198.085L207.183 191.516C210.068 187.903 214.038 182.124 216.006 178.674L219.584 172.4L236.755 173.333C246.199 173.845 254.883 174.029 256.054 173.74C259.721 172.835 261.426 169.524 263.969 158.367C266.174 148.692 266.278 147.551 265.082 146.182C263.609 144.494 254.246 140.203 240.542 134.932C235.532 133.005 230.988 130.86 230.444 130.165C229.9 129.471 229.241 126.988 228.979 124.648C228.717 122.308 227.537 115.728 226.358 110.025L224.215 99.6553L236.523 88.5689C251.208 75.3423 252.273 74.0219 251.042 70.5573C249.277 65.5836 239.301 51.0042 237.285 50.4508C234.957 49.8108 228.286 52.0025 212.346 58.6441L200.769 63.4675L193.909 58.2806C190.135 55.4284 184.345 51.547 181.042 49.6557L175.035 46.2169L175.531 28.1824C176.077 8.32218 175.823 7.01167 171.124 5.37168C168.499 4.45619 151.145 0.45351 149.625 0.413253C149.254 0.403415 148.326 1.05699 147.565 1.86472ZM147.935 76.54C156.21 78.8324 166.79 84.7443 172.649 90.3471C179.51 96.9102 185.487 106.523 188.195 115.351C190.072 121.474 190.322 123.827 190.082 133.156C189.841 142.594 189.501 144.696 187.308 150.377C180.461 168.111 167.48 180.265 149.267 185.994C142.919 187.992 141.044 188.186 130.812 187.91C121.198 187.651 118.544 187.273 113.783 185.485C99.7858 180.228 87.6375 169.467 80.5799 156.074C72.5981 140.93 72.7314 121.502 80.9254 105.738C85.9757 96.0233 98.2697 84.2583 108.187 79.6509C118.674 74.7788 136.534 73.3809 147.935 76.54Z" fill="#3768FF"/>
</svg>
