<svg width="61" height="61" viewBox="0 0 61 61" fill="none" xmlns="http://www.w3.org/2000/svg">
<path fill-rule="evenodd" clip-rule="evenodd" d="M35.5117 19.4109L34.1784 20.7705L37.2684 23.6883L40.3585 26.6061L41.6348 25.3615C43.5264 23.5168 43.4396 23.1702 40.387 20.368C38.9986 19.0935 37.6339 18.051 37.3539 18.051C37.0742 18.051 36.2452 18.6628 35.5117 19.4109ZM28.3683 26.7418C26.2075 28.9816 24.103 31.2167 23.6916 31.7084L22.9441 32.6029L25.8708 35.5387C27.4806 37.1533 28.8845 38.4436 28.9909 38.406C29.0973 38.3683 31.3101 36.1199 33.9081 33.409L38.6316 28.4802L35.6297 25.6167C33.9788 24.0419 32.5536 22.7344 32.4628 22.7113C32.3719 22.6882 30.5295 24.5019 28.3683 26.7418ZM19.3997 39.1274C18.8156 41.4092 18.4039 43.3425 18.4853 43.4239C18.5995 43.5384 23.8878 41.8934 26.2359 41.0129C26.5025 40.9129 25.709 39.9507 23.6879 37.9234C22.0735 36.3039 20.6873 34.979 20.6075 34.979C20.5274 34.979 19.9841 36.8459 19.3997 39.1274Z" fill="#2356F6"/>
</svg>
